<svg xmlns="http://www.w3.org/2000/svg" width="1400" height="820" viewBox="0 0 1400 820" role="img" aria-labelledby="title desc">
  <title id="title">RescueLens architecture diagram</title>
  <desc id="desc">Flow from live disaster feeds and drone imagery through Gemini, Arize Phoenix MCP, Google Agent Platform, and human-approved response artifacts.</desc>
  <defs>
    <linearGradient id="bg" x1="0" x2="1" y1="0" y2="1">
      <stop offset="0%" stop-color="#35285f"/>
      <stop offset="42%" stop-color="#434b7f"/>
      <stop offset="72%" stop-color="#563065"/>
      <stop offset="100%" stop-color="#641744"/>
    </linearGradient>
    <linearGradient id="hero" x1="0" x2="1">
      <stop offset="0%" stop-color="#4285f4"/>
      <stop offset="34%" stop-color="#22d3ee"/>
      <stop offset="70%" stop-color="#7c3aed"/>
      <stop offset="100%" stop-color="#34a853"/>
    </linearGradient>
    <filter id="shadow" x="-20%" y="-20%" width="140%" height="140%">
      <feDropShadow dx="0" dy="16" stdDeviation="18" flood-color="#151917" flood-opacity="0.16"/>
    </filter>
    <marker id="arrow" markerWidth="12" markerHeight="12" refX="10" refY="6" orient="auto">
      <path d="M2 2 L10 6 L2 10 Z" fill="#334155"/>
    </marker>
    <style>
      .title { font-family: Inter, Arial, sans-serif; font-size: 42px; font-weight: 900; fill: #fffefa; }
      .subtitle { font-family: Inter, Arial, sans-serif; font-size: 18px; font-weight: 650; fill: #e6ddf2; }
      .label { font-family: Inter, Arial, sans-serif; font-size: 21px; font-weight: 850; fill: #111827; }
      .body { font-family: Inter, Arial, sans-serif; font-size: 15px; font-weight: 650; fill: #5b6560; }
      .tiny { font-family: Inter, Arial, sans-serif; font-size: 12px; font-weight: 800; fill: #0f766e; text-transform: uppercase; }
      .headerTiny { fill: #dffcff; }
      .card { fill: #fffefa; stroke: #d7dbd5; stroke-width: 2; rx: 18; filter: url(#shadow); }
      .dark { fill: #151917; stroke: #2b3330; }
      .darkText { fill: #f8faf5; }
      .mutedDark { fill: #cbd5d1; }
      .line { stroke: #334155; stroke-width: 3; fill: none; marker-end: url(#arrow); }
      .softLine { stroke: #94a3b8; stroke-width: 2; stroke-dasharray: 7 7; fill: none; marker-end: url(#arrow); }
      .pill { fill: rgba(255,255,255,0.12); stroke: #22d3ee; stroke-width: 1.5; rx: 999; }
    </style>
  </defs>

  <rect width="1400" height="820" fill="url(#bg)"/>
  <circle cx="1080" cy="110" r="250" fill="#7c3aed" opacity="0.18"/>
  <circle cx="160" cy="710" r="230" fill="#22d3ee" opacity="0.11"/>
  <rect x="0" y="0" width="1400" height="8" fill="url(#hero)"/>

  <text x="70" y="76" class="title">RescueLens</text>
  <text x="70" y="108" class="subtitle">Live disaster signal to supervised rescue action, with model risk checked before dispatch.</text>
  <rect x="1055" y="42" width="268" height="44" class="pill"/>
  <text x="1082" y="70" class="tiny headerTiny">Live agent workflow verified</text>

  <rect x="70" y="165" width="245" height="150" class="card"/>
  <text x="96" y="205" class="tiny">Input layer</text>
  <text x="96" y="238" class="label">Live signals</text>
  <text x="96" y="267" class="body">NASA EONET</text>
  <text x="96" y="291" class="body">USGS earthquakes</text>
  <text x="96" y="315" class="body">NOAA/NWS alerts</text>

  <rect x="70" y="370" width="245" height="150" class="card"/>
  <text x="96" y="410" class="tiny">Evidence layer</text>
  <text x="96" y="443" class="label">Drone imagery</text>
  <text x="96" y="472" class="body">Uploaded field frame</text>
  <text x="96" y="496" class="body">Satellite context</text>
  <text x="96" y="520" class="body">Heatmaps + overlays</text>

  <rect x="405" y="234" width="260" height="230" class="dark" rx="22" filter="url(#shadow)"/>
  <text x="435" y="279" class="tiny" fill="#22d3ee">Agent brain</text>
  <text x="435" y="318" class="label darkText">Gemini</text>
  <text x="435" y="351" class="body mutedDark">Image reasoning</text>
  <text x="435" y="375" class="body mutedDark">Command planning</text>
  <text x="435" y="399" class="body mutedDark">Responder briefing</text>
  <text x="435" y="423" class="body mutedDark">Human oversight</text>

  <rect x="760" y="138" width="270" height="178" class="card"/>
  <text x="790" y="181" class="tiny">Arize computer vision</text>
  <text x="790" y="218" class="label">CV telemetry</text>
  <text x="790" y="249" class="body">Classification, detection</text>
  <text x="790" y="273" class="body">Segmentation, embeddings</text>
  <text x="790" y="297" class="body">Drift, monitors, evaluators</text>

  <rect x="760" y="375" width="270" height="178" class="card"/>
  <text x="790" y="418" class="tiny">Arize partner MCP</text>
  <text x="790" y="455" class="label">Phoenix MCP</text>
  <text x="790" y="486" class="body">Live stdio connection</text>
  <text x="790" y="510" class="body">Prompt/dataset tools</text>
  <text x="790" y="534" class="body">Failure slice review</text>

  <rect x="1115" y="234" width="245" height="150" class="card"/>
  <text x="1143" y="276" class="tiny">Managed runtime</text>
  <text x="1143" y="313" class="label">Agent Platform</text>
  <text x="1143" y="344" class="body">Live Interactions API</text>
  <text x="1143" y="368" class="body">Status: submitted</text>

  <rect x="1115" y="485" width="245" height="150" class="card"/>
  <text x="1143" y="527" class="tiny">Action layer</text>
  <text x="1143" y="564" class="label">Human approval</text>
  <text x="1143" y="595" class="body">Safety plan</text>
  <text x="1143" y="619" class="body">Report / dispatch task</text>

  <path d="M315 240 C355 240 365 295 405 318" class="line"/>
  <path d="M315 445 C355 445 365 385 405 360" class="line"/>
  <path d="M665 320 C710 285 720 245 760 228" class="line"/>
  <path d="M665 379 C710 414 720 452 760 466" class="line"/>
  <path d="M1030 464 C1070 454 1080 365 1115 330" class="line"/>
  <path d="M1030 228 C1074 226 1086 265 1115 296" class="softLine"/>
  <path d="M1238 384 L1238 485" class="line"/>

  <rect x="407" y="610" width="624" height="96" fill="#fffefa" stroke="#d7dbd5" stroke-width="2" rx="18"/>
  <text x="438" y="649" class="label">Safety principle</text>
  <text x="438" y="679" class="body">No rescue, route closure, or dispatch is treated as complete until a trained human approves the artifact.</text>

  <circle cx="388" cy="650" r="12" fill="#4285f4"/>
  <circle cx="1088" cy="650" r="12" fill="#34a853"/>
  <path d="M400 650 L1076 650" stroke="url(#hero)" stroke-width="5" stroke-linecap="round"/>
</svg>
